{
   "accessors" : [
      {
         "bufferView" : 2,
         "byteOffset" : 0,
         "componentType" : 5126,
         "count" : 9882,
         "max" : [ 1, 1, 1, 1 ],
         "min" : [ 0, 0.006584956776350737, 0.006584956776350737, 1 ],
         "name" : "accessor_color_m0-PolyPaper18_-185814",
         "type" : "VEC4"
      },
      {
         "bufferView" : 2,
         "byteOffset" : 158112,
         "componentType" : 5126,
         "count" : 5102,
         "max" : [ 1, 1, 1, 1 ],
         "min" : [ 0, 0.006584956776350737, 0.006584956776350737, 1 ],
         "name" : "accessor_color_m1-PolyPaper11_-186534",
         "type" : "VEC4"
      },
      {
         "bufferView" : 0,
         "byteOffset" : 0,
         "componentType" : 5123,
         "count" : 15198,
         "max" : [ 9881 ],
         "min" : [ 0 ],
         "name" : "accessor_indices_0_m0-PolyPaper18_-185814",
         "type" : "SCALAR"
      },
      {
         "bufferView" : 0,
         "byteOffset" : 30396,
         "componentType" : 5123,
         "count" : 7650,
         "max" : [ 5101 ],
         "min" : [ 0 ],
         "name" : "accessor_indices_0_m1-PolyPaper11_-186534",
         "type" : "SCALAR"
      },
      {
         "bufferView" : 1,
         "byteOffset" : 118584,
         "componentType" : 5126,
         "count" : 9882,
         "max" : [ 1, 1, 1 ],
         "min" : [ -1, -1, -1 ],
         "name" : "accessor_normal_m0-PolyPaper18_-185814",
         "type" : "VEC3"
      },
      {
         "bufferView" : 1,
         "byteOffset" : 298392,
         "componentType" : 5126,
         "count" : 5102,
         "max" : [ 0.9998407, 0.9996058, 0.9981533 ],
         "min" : [ -0.9926757, -0.9996058, -0.9959955 ],
         "name" : "accessor_normal_m1-PolyPaper11_-186534",
         "type" : "VEC3"
      },
      {
         "bufferView" : 1,
         "byteOffset" : 0,
         "componentType" : 5126,
         "count" : 9882,
         "max" : [ 0.3677984, 1.963193, -0.2424502 ],
         "min" : [ -0.353068, 0.3000263, -0.8303913000000001 ],
         "name" : "accessor_position_m0-PolyPaper18_-185814",
         "type" : "VEC3"
      },
      {
         "bufferView" : 1,
         "byteOffset" : 237168,
         "componentType" : 5126,
         "count" : 5102,
         "max" : [ 0.2814166, 1.395956, -0.2210954 ],
         "min" : [ -0.2187781, 0.3088378, -0.8439573 ],
         "name" : "accessor_position_m1-PolyPaper11_-186534",
         "type" : "VEC3"
      }
   ],
   "asset" : {
      "copyright" : "Unknown",
      "extras" : {
         "GOOGLE_processor_version" : 294144208
      },
      "generator" : "glTF 1-to-2 Upgrader for Google Blocks",
      "version" : "2.0"
   },
   "bufferViews" : [
      {
         "buffer" : 0,
         "byteLength" : 45696,
         "byteOffset" : 0,
         "name" : "ushortBufferView",
         "target" : 34963
      },
      {
         "buffer" : 0,
         "byteLength" : 359616,
         "byteOffset" : 45696,
         "byteStride" : 12,
         "name" : "vec3BufferView",
         "target" : 34962
      },
      {
         "buffer" : 0,
         "byteLength" : 239744,
         "byteOffset" : 405312,
         "byteStride" : 16,
         "name" : "vec4BufferView",
         "target" : 34962
      }
   ],
   "buffers" : [
      {
         "byteLength" : 645056,
         "name" : "model",
         "uri" : "model.bin"
      }
   ],
   "cameras" : [
      {
         "perspective" : {
            "yfov" : 0.7853981633974483,
            "znear" : 0.1000000014901161
         },
         "type" : "perspective"
      }
   ],
   "extensions" : {
      "KHR_lights_punctual" : {
         "lights" : [
            {
               "color" : [ 1, 0.9333333333333333, 0.8666666666666667 ],
               "intensity" : 0.25,
               "name" : "headLight",
               "type" : "directional"
            },
            {
               "color" : [ 1, 0.9333333333333333, 0.8666666666666667 ],
               "intensity" : 0.324999988079071,
               "name" : "keyLight",
               "type" : "directional"
            }
         ]
      }
   },
   "extensionsUsed" : [ "GOOGLE_backgrounds", "GOOGLE_camera_settings", "KHR_lights_punctual" ],
   "extras" : {
      "GOOGLE_initial_camera_motion" : {
         "motionPath" : "FULL_ROTATION"
      },
      "GOOGLE_lighting_rig" : {
         "disableShadows" : false
      }
   },
   "materials" : [
      {
         "alphaMode" : "OPAQUE",
         "doubleSided" : false,
         "name" : "BlocksPaper",
         "pbrMetallicRoughness" : {
            "baseColorFactor" : [ 1, 1, 1, 1 ],
            "metallicFactor" : 0,
            "roughnessFactor" : 0.6
         }
      },
      {
         "alphaMode" : "BLEND",
         "doubleSided" : false,
         "name" : "BlocksGlass",
         "pbrMetallicRoughness" : {
            "baseColorFactor" : [ 0.2, 0.2, 1, 0.3 ],
            "metallicFactor" : 1,
            "roughnessFactor" : 0.4
         }
      },
      {
         "alphaMode" : "OPAQUE",
         "doubleSided" : true,
         "name" : "BlocksGem",
         "pbrMetallicRoughness" : {
            "baseColorFactor" : [ 1, 0.4, 1, 1 ],
            "metallicFactor" : 0,
            "roughnessFactor" : 0.1
         }
      }
   ],
   "meshes" : [
      {
         "name" : "mesh_m0-PolyPaper18_-185814",
         "primitives" : [
            {
               "attributes" : {
                  "COLOR_0" : 0,
                  "NORMAL" : 4,
                  "POSITION" : 6
               },
               "indices" : 2,
               "material" : 0,
               "mode" : 4
            }
         ]
      },
      {
         "name" : "mesh_m1-PolyPaper11_-186534",
         "primitives" : [
            {
               "attributes" : {
                  "COLOR_0" : 1,
                  "NORMAL" : 5,
                  "POSITION" : 7
               },
               "indices" : 3,
               "material" : 0,
               "mode" : 4
            }
         ]
      }
   ],
   "nodes" : [
      {
         "mesh" : 1,
         "name" : "node_MeshObject-611101056-PolyPaper11"
      },
      {
         "mesh" : 0,
         "name" : "node_MeshObject2127706048-PolyPaper18"
      },
      {
         "children" : [ 3 ]
      },
      {
         "children" : [ 4 ],
         "extras" : {
            "isTransformNode" : 1
         },
         "translation" : [ 0.02337516439016735, 0.8449711704719404, -0.5344830033533714 ]
      },
      {
         "children" : [ 1, 0 ],
         "translation" : [ -0.02337516439016735, -0.8449711704719404, 0.5344830033533714 ]
      },
      {
         "camera" : 0,
         "children" : [ 6 ],
         "rotation" : [
            -0.1339641193985453,
            0.4319810268289188,
            0.06505884694295092,
            0.8895017445784236
         ],
         "translation" : [ 1.418440970085245, 1.435217743762011, 0.6234860080132316 ]
      },
      {
         "extensions" : {
            "KHR_lights_punctual" : {
               "light" : 0
            }
         },
         "extras" : {
            "isHeadLight" : 1
         },
         "name" : "headLightNode",
         "translation" : [ -1.398174818623883, 0.6990874093119414, 0.6990874093119414 ]
      },
      {
         "extensions" : {
            "KHR_lights_punctual" : {
               "light" : 1
            }
         },
         "extras" : {
            "isKeyLight" : 1
         },
         "name" : "keyLightNode",
         "rotation" : [ -0.7505326882858236, -0.3752663441429118, 0, 0.5439447166468927 ],
         "scale" : [ 0, 0, 1.412156566810121 ],
         "translation" : [ -1.358684777823627, 3.537053784520981, -1.908166471307563 ]
      }
   ],
   "scene" : 0,
   "scenes" : [
      {
         "extensions" : {
            "GOOGLE_backgrounds" : {
               "color" : [ 0.4745098039215686, 0.5254901960784314, 0.796078431372549 ]
            },
            "GOOGLE_camera_settings" : {}
         },
         "extras" : {
            "GOOGLE_camera_index" : {
               "cameraIndex" : 0,
               "nodeIndex" : 5
            },
            "GOOGLE_geometry_data" : {
               "stats" : {
                  "centroid" : [ 0.05347178898649448, 0.7127406509007385, -0.4960099044974418 ],
                  "radius" : 1.398174818623883,
                  "stdev" : 0.4439187551239958
               },
               "visualCenterPoint" : [ 0.02337516439016735, 0.8449711704719404, -0.5344830033533714 ]
            },
            "GOOGLE_hemi_light" : {
               "groundColor" : [ 0.4745098039215686, 0.5254901960784314, 0.796078431372549 ]
            }
         },
         "name" : "defaultScene",
         "nodes" : [ 2, 5, 7 ]
      }
   ]
}
